<?xml version="1.0" encoding="utf-8"?>
<!-- Generator: Adobe Illustrator 16.0.4, SVG Export Plug-In . SVG Version: 6.00 Build 0)  -->
<!DOCTYPE svg PUBLIC "-//W3C//DTD SVG 1.1//EN" "http://www.w3.org/Graphics/SVG/1.1/DTD/svg11.dtd">
<svg version="1.1" id="Layer_1" xmlns="http://www.w3.org/2000/svg" xmlns:xlink="http://www.w3.org/1999/xlink" x="0px" y="0px"
	 width="530px" height="141px" viewBox="0 0 530 141" style="enable-background:new 0 0 530 141;" xml:space="preserve">
<style type="text/css">
<![CDATA[
	.st0{fill-rule:evenodd;clip-rule:evenodd;}
]]>
</style>
<path class="st0" d="M86.3,85.9c1.2,3.5,3.5,3.5,6,2.6c1.3-0.5,2.3-1.3,3.3-2.2c0.8-0.7,1.6-1.4,2.2-2.2c1-1.1,2-1.7,3.5-1
	c0.1,0.1,0.3,0,0.7-0.1c1.5-1.6,2.7-3.6,3.7-5.6c1.1-2.3,2-4.7,3-7.1c0.4-1.1,0.7-2.2,1.2-3.2c1.3-3,1.7-6.1,2.2-9.2
	c0.2-1,0.4-1.9,0.7-2.8c0.5-1.4,1.5-2,2.9-1.7c1.1,0.2,1.9,1.2,1.7,2.6c-0.2,1.9-0.4,3.9-0.9,5.8c-0.9,3.6-0.6,7.2,0.1,10.8
	c0.8,4.5,2.8,8.5,4.8,12.8c0.7,0,1.4,0,2-0.1c1.4-0.3,2.8-0.6,4.1-0.9c1-0.2,1.9-0.1,2.7,0.7c0.8,0.9,0.8,2.1-0.2,2.8
	c-0.5,0.4-1.2,0.7-1.9,0.9c-1,0.3-2.1,0.4-3.1,0.6c-0.7,0.1-1.3,0.3-1.9,0.5c-0.7,1.1-0.5,2.2-0.6,3.2c0,3-1.4,5.3-3.6,7.1
	c-2.9,2.3-6.1,3.5-9.9,2.6c-2.1-0.5-3.9-1.6-5.5-3.1c-2-2-2.1-4.2-0.2-6.3c2.1-2.2,4.7-3.7,7.5-4.8c1.7-0.6,3.5-1.2,5.3-1.8
	c0-0.4,0.1-0.8,0-1.1c-1.1-3.3-2.6-6.5-4-9.7c-0.9,0.1-1,0.9-1.2,1.4c-1.5,2.9-3,5.8-5.1,8.4c-0.5,0.6-1,1.3-1.5,1.9
	c-1.7,1.9-2.1,2-4.7,1.2c-0.5,0.4-1,0.8-1.6,1.2c-0.9,0.7-1.8,1.4-2.7,2.1c-3.2,2.2-6,2.2-9.9-0.1c-0.7-0.4-1.3-0.9-2-1.5
	c-0.5,0.4-0.9,0.8-1.4,1.2c-0.8,0.8-1.6,1.7-2.5,2.4c-1.1,0.8-2.3,1.6-3.6,2.2c-2.6,1.1-4.8,0.4-6.6-1.7c-0.5-0.6-0.9-1.3-1.5-1.9
	c-0.2,0.3-0.4,0.5-0.5,0.7c-0.9,1.3-1.5,1.7-2.5,1.4c-1.4-0.4-2.1-1.4-2-2.7c0.1-1.8,0.3-3.5,0.5-5.3c0.5-4.7,1-9.3,1.4-14
	c0.2-2.1,0.4-4.2,0.6-6.3c0-0.4,0.1-0.7,0.2-1c0.2-1,0.9-1.5,1.8-1.7c1-0.2,1.8,0.2,2.3,1c0.3,0.6,0.5,1.3,0.6,2
	c0.1,1.9,0,3.7,0,5.6c-0.2,5.3,0.1,10.6,1.1,15.8c0.2,1.2,0.6,2.4,1.1,3.5c0.3,0.8,1,1.1,1.7,0.7c0.9-0.4,1.7-0.9,2.4-1.5
	c1.5-1.3,2.8-2.7,4.3-4.1c-0.1-0.3-0.2-0.8-0.3-1.2c-2.1-6.7-1.5-13.3,1.4-19.6c0.7-1.4,1.7-2.7,2.6-4c0.9-1.1,2.1-1.9,3.4-2.4
	c3.1-1.2,5.9,0.1,7,3.2c0.3,1,0.5,2.1,0.6,3.1c0.1,1.5,0.1,3,0,4.5c-0.1,0.9-0.3,1.7-0.7,2.5c-2,4.6-4.4,8.8-8,12.4
	C86.9,85.1,86.6,85.5,86.3,85.9z M89.9,63.4c-1.4,0.4-2.1,1.2-2.6,2.1c-0.7,1.3-1.4,2.6-1.8,4.1c-0.9,3.1-1,6.2-0.7,9.4
	c0,0.1,0.2,0.2,0.5,0.3c2.3-2.8,4.2-5.9,5.4-9.3c0.6-1.7,0.5-3.6,0-5.5C90.5,64.2,90.2,63.9,89.9,63.4z M117.3,90.9
	c-3.4,0.3-7.6,2.1-9.7,4.1c-0.3,0.2-0.5,0.5-0.7,0.8c-0.4,0.5-0.3,1.1,0.1,1.4c0.4,0.3,0.9,0.6,1.4,0.7c2.1,0.5,4.2,0.4,6.2-0.7
	C117.1,95.8,117.9,94.1,117.3,90.9z"/>
<path class="st0" d="M20.1,68.3c-1,0.8-1.2,1.8-1.6,2.7c-1.1,2.6-2.2,5.2-3.3,7.8c-0.9,1.9-2.1,3.7-3.4,5.3
	c-1.4,1.7-2.8,1.7-4.7,0.5c-1.1-0.7-1.7-1.8-2.1-3c-0.7-1.9-0.8-3.8-0.8-5.7c0-6.2,0-12.4,0-18.6c0-2,0-4.1,0-6.1
	c0-0.7,0-1.4,0.1-2.1c0.2-1.4,1.1-2.2,2.5-2.2C8,47,8.9,47.7,9.1,49c0.1,0.8,0.1,1.6,0.1,2.4c0,6,0,12,0,18c0,2.2,0.1,4.4,0.2,6.6
	c0,1,0.1,1.9,0.8,2.9c0.3-0.4,0.6-0.7,0.8-1c0.8-1.9,1.6-3.7,2.4-5.6c0.9-2.3,1.7-4.6,2.7-6.9c0.6-1.4,1.4-2.9,2.4-4.1
	c1-1.4,2.5-1.3,3.6,0c0.5,0.6,0.9,1.3,1.1,2.1c0.6,1.8,1.1,3.5,1.6,5.3c1.1,4.6,2,9.3,3.2,13.9c0.7,2.6,1.6,5.1,2.6,7.5
	c0.6,1.4,1.5,2.8,2.5,4c2,2.5,5.4,3.3,8.5,1c1.1-0.9,2.2-1.8,3.1-2.9c1.3-1.7,2.6-3.6,3.7-5.5c3.7-7,6.4-14.4,7.8-22.2
	c0.6-3.4,0.4-6.9,0.3-10.3c-0.1-2.2-0.5-4.4-1-6.5c-1.7-7.4-5.8-13.2-11.9-17.6c-5.6-4-11.8-6.3-18.6-7.3c-3.8-0.6-7.7-0.7-11.6-1.1
	c-0.6-0.1-1.3,0-1.8-0.2c-0.6-0.2-1.2-0.4-1.6-0.8c-0.8-0.6-0.9-1.6-0.5-2.4c0.4-0.8,1.4-1.3,2.2-1.1c1.1,0.3,2.2,0.7,3.3,0.9
	c2.1,0.3,4.2,0.5,6.3,0.6c11.6,1,21.7,5.2,30.2,13.2c4.5,4.2,7.3,9.4,8.8,15.5c1.1,4.6,1.5,9.3,1.2,13.9c-0.1,2.3-0.6,4.6-1.1,6.8
	c-2.1,8.8-5.4,17.2-10.3,24.8c-1.7,2.6-3.8,4.9-6.4,6.7c-1.7,1.2-3.6,1.8-5.7,1.7c-1.7-0.1-3.3-0.8-4.7-1.7
	c-2.1-1.5-3.9-3.3-5.3-5.5c-2.5-3.7-4.1-7.8-5-12.2C22,77.5,21.1,73,20.1,68.3z"/>
<path class="st0" d="M67,57.5c-0.4-0.1-0.8-0.1-1.2-0.3c-0.8-0.4-1.4-1.4-1.2-2.2c0.2-0.8,0.8-1.5,1.6-1.5c0.8-0.1,1.6,0,2.3,0.2
	c0.8,0.3,1.3,0.9,1.3,1.8c0,0.8-0.8,1.6-1.7,1.8C67.8,57.4,67.4,57.4,67,57.5z"/>
<path class="st0" d="M486.5,84.7c-0.6,0.6-1,0.8-1.2,1.2c-0.6,1-1.1,2.1-1.8,3.1c-1.4,1.9-2.9,3.8-4.4,5.6c-0.6,0.7-1.4,1.4-2.3,1.9
	c-4.5,2.6-8,0.9-10-2.5c-0.5-0.8-0.9-1.8-1.4-2.7c-2.4-0.4-4.7-0.3-7,0.8c0,0.4-0.1,0.7,0.1,0.9c1.6,3.5,1.8,7.1,1.5,10.9
	c-0.3,3.5-1,6.9-2.3,10.2c-1.1,3.1-3,5.6-5.3,7.9c-2.5,2.5-5.9,2.2-8.4,0.2c-1.5-1.2-2.5-2.8-3.3-4.5c-1.2-2.5-1.9-5.3-2.4-8
	c-0.3-1.5-0.6-2.9-0.9-4.6c-0.6,0.2-1.1,0.2-1.5,0.4c-0.9,0.5-1.7,1.1-2.5,1.6c-0.7,0.4-1.5,0.5-2.2-0.1c-0.6-0.4-0.7-1.2-0.4-2.2
	c0.8-2.1,1.9-4,3.5-5.5c1.7-1.6,2.2-3.4,2.1-5.6c-0.1-4.8,0-9.6,0-14.4c0-0.6-0.1-1.2-0.1-1.6c-0.8-0.7-1.4-0.3-2,0.1
	c-1.9,1-3.7,1.9-5.8,2.4c-1,0.2-2,0.3-2.9-0.3c-0.4-0.3-0.8-0.6-1-1c-0.6-1.1,0.1-2.4,1.4-2.3c3.7,0.5,6.5-1.5,9.3-3.4
	c0.8-0.5,1.2-1.3,1.3-2.2c0.9-10.3,3.3-20.3,5.1-30.4c0.6-3.2,1-6.5,1.5-9.7c0.4-2.7,0.8-5.4,1.8-7.9c0.5-1.3,1.2-2.5,2.1-3.6
	c1.4-1.7,3.6-1.9,5.3-0.5c0.8,0.6,1.5,1.4,2,2.2c0.8,1.3,1.6,2.8,2.2,4.2c1.2,3.1,2.2,6.2,3.3,9.3c0.1,0.4,0.3,0.8,0.3,1.2
	c0.2,5.4,0.1,10.7-2.1,15.9c-2.9,6.9-7,13-12.3,18.3c-1.2,1.2-2.8,2.2-3.4,3.7c-0.7,1.4-0.4,3.3-0.6,5c-0.4,3.4-0.7,6.7-1.1,10.1
	c-0.2,1.6-0.4,3.1,0.1,4.6c0.7,0.5,1.1,0.2,1.5-0.1c1.4-0.9,2.8-1.9,4.3-2.8c2.3-1.4,4.6-2.3,7.4-1.7c0.4,0.1,1,0.1,1.4-0.1
	c2.6-1.1,5.4-1.5,8.2-1.6c0.5,0,0.9-0.3,1.4-0.5c0.2-2.3,0.4-4.6,0.7-6.9c0.4-2.7,0.7-5.3,1.3-8c0.8-3.6,2.3-7,4.3-10.1
	c0.9-1.3,1.9-2.6,3.1-3.6c2-1.8,4.4-2.3,7-1.3c0.8,0.3,1.7,0.7,2.4,1c0.8-0.2,0.8-0.9,0.8-1.5c-0.2-4.4-0.4-8.8-0.5-13.2
	c-0.1-6.2,0.1-12.4,0.8-18.5c0.4-3.7,1.2-7.3,3-10.6c0.7-1.4,1.7-2.7,3-3.6c2.3-1.5,4.2-1.2,5.7,1.1c0.8,1.1,1.3,2.5,1.8,3.8
	c1,2.7,1.4,5.6,1.7,8.5c1.5,12.6-0.1,24.9-3.9,36.9c-1.6,4.9-3.3,9.6-5.4,14.3c-0.7,1.6-1,3.2-0.8,4.9c1.4,9.3,2.9,18.5,5.3,27.6
	c2.1,8.3,5.1,16.2,9.5,23.5c0.4,0.6,0.6,1.2,0.8,1.9c0.1,0.3-0.1,0.8-0.4,1c-0.4,0.4-1,0.5-1.3,0.1c-0.6-0.6-1.3-1.3-1.7-2
	c-2.8-4.4-5.1-9-7-13.9c-3.1-7.7-5.2-15.7-6.6-23.9c-0.5-2.8-0.9-5.5-1.3-8.3C486.9,85.7,486.8,85.4,486.5,84.7z M469.5,91.9
	c0.1,1.3,0.7,2,1.9,2c1.9,0.2,3.5-0.6,4.9-1.8c1.4-1.2,2.3-2.7,3.2-4.3c1.2-2.2,2.4-4.4,3.7-6.5c1.4-2.3,2.4-4.6,1.6-7.3
	c-0.1-0.4,0-0.8-0.1-1.2c-0.3-2.7-0.5-5.4-0.8-8c-0.1-0.9-0.2-1.8-0.7-2.6c-2-3.2-6.2-3.6-8.7-0.7c-1.1,1.3-2,2.8-2.6,4.3
	c-1.7,3.7-2.9,7.6-3.8,11.6c-0.5,2.5-0.6,4.9-0.6,7.4c0,0.7,0.2,1.3,0.4,2.1c0.9,0.2,1.7,0.2,2.4,0.5c0.6,0.2,1.2,0.6,1.7,1.1
	c0.7,0.8,0.5,2-0.5,2.5C470.8,91.5,470.2,91.6,469.5,91.9z M490.3,65.1c0.5-1,0.8-1.6,1-2.3c1.1-4,2.3-8,3.3-12.1
	c1.2-5.2,1.8-10.4,1.8-15.7c0.1-5.7-0.6-11.3-1.8-16.9c-0.1-0.6-0.3-1.2-0.5-1.7c-0.4-1-0.7-2.3-1.9-2.4c-1.5-0.2-1.9,1.2-2.4,2.2
	c-1.3,2.7-1.9,5.6-2.4,8.6c-1.2,7.9-1.2,15.9-1,23.9c0.1,3.3,0.3,6.6,0.5,9.9c0.1,1.8,0.5,3.3,1.8,4.6
	C489.2,63.6,489.6,64.2,490.3,65.1z M442,68.6c0.9-0.8,1.5-1.2,1.9-1.7c1.9-2.3,3.8-4.6,5.7-6.9c2.2-2.9,3.8-6.1,4.9-9.5
	c1.6-4.7,2-9.5,0.8-14.4c-1-3.9-2.5-7.5-4.3-11.1c-0.3-0.5-0.6-1-1-1.5c-1-1.3-2.1-1.2-2.7,0.3c-0.5,1.5-0.9,3-1.2,4.6
	c-1.4,7.7-2.3,15.6-3.1,23.4c-0.3,3.2-0.7,6.3-0.9,9.5C441.8,63.5,441.6,65.8,442,68.6z M454.1,94.2c-0.3,0-0.4-0.1-0.5-0.1
	c-4.2,1.7-7.8,4.4-11.2,7.4c-0.6,0.5-0.7,1.2-0.7,1.9c0.3,4.5,1,8.9,2.9,13.1c0.5,1.1,1.5,2.1,2.4,3c0.9,0.9,2,0.9,3,0.2
	c0.6-0.4,1.1-0.9,1.5-1.5c0.6-0.8,1.1-1.7,1.5-2.6c2.5-5.6,3.1-11.5,2.8-17.6C455.7,96.6,455.2,95.2,454.1,94.2z"/>
<path class="st0" d="M358.8,71.8c-0.8,4.5-1.5,8.8-2.2,13.2c0.7,0.4,1.2,0.8,1.8,1.1c7.2,3.3,13.8,7.6,20.3,12
	c1.2,0.8,2.4,1.5,3.4,2.4c0.6,0.5,1.2,1.1,1.4,1.8c0.2,0.4,0,1.2-0.3,1.6c-0.3,0.6-1.1,0.6-1.6,0.3c-0.7-0.3-1.4-0.7-2.1-1.1
	c-2.8-1.8-5.7-3.7-8.5-5.6c-2.9-1.9-5.8-3.9-8.8-5.7c-1.9-1.2-4-2.3-6.2-2.8c-0.8,0.5-0.9,1.3-1.1,2.1c-1.3,4.6-2.8,9.2-4.8,13.5
	c-1.8,3.9-4.1,7.5-7.2,10.6c-1.4,1.3-2.9,2.5-4.6,3.3c-2.5,1.2-5,1.2-7.4-0.2c-3.2-1.9-5.2-4.6-5.2-8.5c0-2.7-0.1-5.4,0-8.1
	c0.1-1.9,0.3-3.8,0.7-5.6c1.5-7,6-11,12.6-13.1c3.2-1,6.5-0.9,9.8-0.3c1.3,0.2,2.7,0.5,4,0.7c1.1-2.6,1.8-6.8,1.6-9.6
	c-0.7-0.5-1.5-0.1-2.2,0.1c-4.2,1.3-8.6,1.8-13,1.5c-3.3-0.2-6.5-1-9.4-2.6c-1.2-0.7-2.3-1.5-3.4-2.4c-0.9-0.7-0.9-1.7-0.6-2.7
	c0.3-1,1.1-1.4,2-1.6c0.2-0.1,0.4-0.1,0.6-0.1c2.8-0.1,3.7-0.5,4.1,3.1c1.7,1.5,3.9,1.8,6.1,2.1c5.9,0.8,11.5-0.2,17.2-2.5
	c0.2-1.1,0.5-2.3,0.7-3.5c0.7-5.5,1.3-11.1,1.9-16.6c1.2-9.9,2.8-19.8,5.4-29.4c0.8-2.9,1.8-5.7,3.2-8.4c0.8-1.5,1.7-2.9,3-4
	c1.5-1.3,3.1-1.6,5-0.9c1.6,0.6,3,1.5,4.3,2.6c1.9,1.8,3.5,3.8,4.9,6c2.1,3.5,3.5,7.1,4.5,11c0.7,2.7,0.8,5.3,0.5,8
	c-1,9.4-4.4,17.8-10.8,24.8c-4.6,5-10.1,8.8-16.2,11.5C360.9,70.8,359.9,71.2,358.8,71.8z M359.9,66.6c1-0.4,1.5-0.5,2-0.8
	c3.7-2,7.2-4.3,10.4-7.1c4.9-4.3,8.6-9.4,10.8-15.6c1.5-4.2,2.5-8.5,2-12.9c-0.8-6.3-3.2-12.1-7.2-17.2c-0.7-0.8-1.5-1.6-2.4-2.2
	c-2.6-1.9-4.1-1.6-5.6,1.2c-1,1.8-1.7,3.8-2.3,5.8c-2.3,7.8-3.6,15.7-4.7,23.7c-1.1,7.6-2,15.2-2.9,22.8
	C359.8,65,359.9,65.5,359.9,66.6z M351.5,87c-1.7-1.2-3.7-1.1-5.5-1.4c-8.2-1.3-13.4,4.1-15.1,9.4c-1.2,3.8-1.4,7.6-0.9,11.5
	c0.2,1.7,0.7,3.3,1.6,4.8c1.9,3.4,4.5,4,7.7,1.8c1.4-1,2.6-2.2,3.6-3.5c1.2-1.5,2.1-3.1,3-4.8c2.7-5.1,4.3-10.5,5.7-16
	C351.6,88.1,351.5,87.5,351.5,87z"/>
<path class="st0" d="M250.8,81.4c-1.1,0.4-1.4,1.5-1.8,2.3c-1.7,3-3.7,5.7-6.2,8c-1.5,1.4-3.2,2.3-5.3,2.4c-2.3,0.1-4.1-0.7-5.5-2.4
	c-1.4-1.7-2.3-3.8-2.4-6c-0.1-2.4-0.1-4.8,0.1-7.2c0.3-3.8,0.7-7.5,1.7-11.2c0.9-3.2,2.2-6.2,4-9c0.8-1.2,1.8-2.4,2.8-3.4
	c2.2-2.1,4.9-2.5,7.8-1.5c0.8,0.3,1.5,1,2.6,0.7c0.4-1.6,0.1-3.1,0.1-4.7c-0.1-4.8-0.5-9.6-0.4-14.4c0.2-6.1,0.3-12.2,1.7-18.1
	c0.5-2.4,1.3-4.6,2.4-6.7c0.7-1.3,1.6-2.5,3-3.3c2.1-1.3,4.2-1,5.5,1c0.9,1.3,1.5,2.8,2,4.3c1.1,3.7,1.6,7.6,1.9,11.5
	c1,14.2-1.7,27.8-6.9,41c-1,2.6-2.1,5.2-3.2,7.7c-0.4,0.9-0.7,1.8-0.5,2.9c1.1,7.3,2.3,14.6,3.8,21.8c2.3,10.9,5.7,21.4,11.5,31
	c0.2,0.3,0.3,0.5,0.4,0.8c0.3,0.6,0.1,1.3-0.4,1.6c-0.6,0.3-1.2,0.4-1.7-0.1c-0.6-0.5-1.1-1.2-1.5-1.9c-1.9-3.6-4-7.2-5.7-10.9
	c-3.7-8.1-6-16.7-7.7-25.4c-0.5-2.8-0.9-5.7-1.3-8.6C251.5,82.8,251.5,82,250.8,81.4z M249.5,73.1c-0.5-4.4-1.1-8-1.2-11.7
	c-0.1-2.2-1.2-3.5-2.9-4.5c-2.3-1.3-4.5-1-6.3,0.9c-1,1.1-1.9,2.4-2.5,3.7c-2.5,5.4-4.2,11-4.8,16.9c-0.3,2.5,0.1,5,0.7,7.4
	c0.3,1.2,1,2.4,1.6,3.5c0.5,1,1.4,1.3,2.5,1.2c1.7-0.2,3.3-0.9,4.5-2.2c0.9-1,1.7-2,2.3-3.1c1.8-3,3.4-6.1,5.1-9.1
	C249.2,75,249.7,73.8,249.5,73.1z M255,61.6c0.5-1.4,0.9-2.3,1.2-3.2c1.9-6.2,3.4-12.5,4.2-18.9c0.6-4.8,0.7-9.6,0.3-14.3
	c-0.3-3.7-1-7.3-1.7-10.9c-0.2-1.1-0.8-2.2-1.4-3.2c-0.4-0.7-1.5-0.7-2.1-0.1c-0.5,0.5-0.9,1.1-1.1,1.7c-0.6,1.5-1.1,3-1.6,4.5
	c-1.2,4.4-1.7,9-1.8,13.6c-0.2,8.1-0.2,16.1,0.4,24.2C251.5,57.7,252.8,59.5,255,61.6z"/>
<path class="st0" d="M412.2,94.1c-0.4,0.4-0.8,0.7-1.1,1.1c-1.1,1.2-2.1,2.4-3.2,3.5c-1.1,1.2-2.4,2.1-4,2.6c-2.9,1-4.8,0.2-6.3-1.9
	c-0.6-0.9-1-1.9-1.5-2.9c-0.3-0.6-0.5-1.2-0.8-1.8c-0.8-0.1-0.7,0.5-0.7,0.8c-0.1,0.8,0,1.6-0.2,2.4c-0.1,0.9-0.9,1.4-1.7,1.3
	c-0.9-0.1-1.6-0.6-1.7-1.4c-0.1-0.5,0-1,0-1.5c0.6-6.6,1.2-13.1,1.8-19.7c0.3-3,0.5-6,0.8-8.9c0.1-0.8,0.1-1.6,0.3-2.4
	c0.2-1,1-1.5,2-1.4c0.8,0.1,1.5,0.6,1.6,1.5c0.1,0.8,0.1,1.6,0.1,2.4c0,4.7-0.1,9.4,0.1,14.1c0.2,3.8,0.8,7.5,1.3,11.3
	c0.2,1.3,0.7,2.5,1.2,3.7c0.5,1,1.5,1.4,2.5,0.9c0.7-0.3,1.5-0.7,2-1.2c0.9-0.8,1.7-1.7,2.5-2.5c1-1.1,2-2.1,3.1-3.2
	c-0.5-2.5-1.2-5-1.5-7.5c-0.7-6.5,0.4-12.7,3.3-18.6c0.8-1.7,2-3.2,3.4-4.5c1.2-1.1,2.7-1.8,4.3-1.8c1.5,0,2.8,0.5,3.5,1.8
	c0.5,0.8,0.9,1.8,1.1,2.7c0.7,2.7,0.5,5.6,0.4,8.3c0,0.9-0.4,1.7-0.8,2.6c-2.2,5.4-4.8,10.5-8.9,14.8c-0.3,0.3-0.5,0.6-0.8,1.1
	c0.1,0.4,0.2,0.9,0.4,1.3c1.7,3.2,3.3,4.6,7.8,2.4c1.8-0.9,3.1-2.5,4.5-3.9c0.6-0.6,1.1-1.4,1.8-2c0.6-0.7,1.4-0.7,2.1-0.1
	c0.7,0.6,0.9,1.4,0.6,2.1c-0.2,0.4-0.4,0.7-0.7,1c-2.1,2-4.1,4.1-6.4,5.9c-3.1,2.5-7,2.3-10.2-0.3c-0.4-0.3-0.7-0.7-1.1-1
	C413,94.8,412.7,94.5,412.2,94.1z M413.1,84.2c0.5-0.3,0.8-0.5,1-0.8c2.7-3.5,4.8-7.3,6.3-11.5c0.9-2.4,0.7-4.9,0-7.3
	c-0.2-0.9-0.6-1.7-1.8-2c-1.2,0.4-2.1,1.3-2.7,2.5c-0.8,1.7-1.7,3.4-2.2,5.2c-1.1,4.2-1.3,8.4-1.1,12.7
	C412.7,83.3,412.9,83.7,413.1,84.2z"/>
<path class="st0" d="M164,86.4c0.3,0.7,0.6,1.5,1,2.1c1.4,2.3,2.9,2.9,5.6,2.2c1.5-0.4,2.8-1.2,3.8-2.2c1.1-1.1,2.1-2.2,3.1-3.2
	c0.4-0.4,0.8-0.9,1.2-1.3c0.5-0.5,1.4-0.4,1.9,0c0.6,0.4,0.9,1.2,0.7,1.8c-0.2,0.5-0.4,0.9-0.7,1.3c-2.1,2-4.2,4-6.4,5.9
	c-3.5,3-7.1,2-10.1-0.2c-1.6-1.1-2.6-2.7-3.5-4.4c-1.2-2.4-2-5-2.2-7.7c-0.5-5.8,0-11.5,2.2-17c0.8-2.1,1.8-4,3.3-5.6
	c1.1-1.2,2.3-2.2,3.9-2.7c2.4-0.8,4.4,0,5.5,2.2c0.5,1,0.8,2.1,0.9,3.1c0.2,2.4,0.2,4.8,0.1,7.2c0,1.1-0.4,2.2-0.8,3.2
	c-2.2,5.3-4.8,10.3-8.8,14.5C164.4,85.6,164.3,85.9,164,86.4z M162.6,81c0.8-0.9,1.4-1.4,1.7-2c1.5-2.5,2.9-5,4.3-7.5
	c1.6-2.8,1.8-5.8,1.7-8.9c-0.1-1.1-0.4-2.1-1.1-3c-0.4-0.5-1-0.6-1.6-0.3c-1.1,0.6-1.8,1.6-2.4,2.6c-1.3,2.2-2,4.5-2.4,7
	c-0.6,3.4-0.6,6.9-0.5,10.4C162.3,79.7,162.4,80.1,162.6,81z"/>
<path class="st0" d="M508.5,90.1c0.5,0.9,1,1.9,1.7,2.9c1,1.3,2.4,1.7,4,1.4c1.8-0.4,3.4-1.2,4.7-2.5c1.1-1.1,2.1-2.2,3.1-3.3
	c0.3-0.4,0.6-0.8,1-1.1c0.7-0.7,1.4-0.7,2.1-0.2c0.7,0.5,1,1.3,0.6,2.1c-0.2,0.4-0.4,0.7-0.6,1c-2.1,2-4.1,4.1-6.4,5.9
	c-3.1,2.5-7,2.3-10.2-0.2c-1.7-1.3-2.9-3-3.7-5c-1.9-4.3-2.5-8.8-2.1-13.5c0.3-3.6,0.9-7.1,2.3-10.5c0.9-2.2,2-4.4,3.6-6.1
	c1.1-1.2,2.4-2.1,4-2.5c2.6-0.6,4.5,0.3,5.5,2.9c0.4,1.2,0.7,2.5,0.8,3.8c0.1,1.9,0.1,3.8,0,5.7c-0.1,1-0.4,2-0.8,2.9
	c-2.1,5.4-4.8,10.5-8.8,14.8c-0.2,0.2-0.4,0.5-0.5,0.7C508.7,89.5,508.7,89.7,508.5,90.1z M512.9,62.5c-1.4,0.5-2.3,1.4-2.9,2.6
	c-0.8,1.6-1.7,3.2-2.1,4.9c-1.1,4.3-1.4,8.7-1.1,13.1c0,0.3,0.3,0.6,0.6,1.1c0.6-0.7,1.1-1.2,1.5-1.7c2-2.8,3.6-5.8,5-8.9
	c1.2-2.7,1.2-5.4,0.8-8.2C514.6,64.3,514.2,63.3,512.9,62.5z"/>
<path class="st0" d="M272.9,86.4c0.4,0.8,0.6,1.5,1,2c1.6,2.5,3.3,3.2,6.1,2.1c1.3-0.5,2.5-1.3,3.5-2.2c1.2-1,2.2-2.3,3.3-3.4
	c0.3-0.4,0.7-0.7,1.1-1c0.5-0.4,1.4-0.3,1.9,0.2c0.6,0.5,0.8,1.3,0.5,1.9c-0.2,0.4-0.4,0.7-0.7,1c-2.2,2-4.2,4.2-6.6,6.1
	c-3.2,2.5-6.9,2.3-10.1-0.4c-1.6-1.3-2.7-2.9-3.6-4.7c-1-2.1-1.7-4.3-1.9-6.6c-0.6-6.2-0.2-12.3,2.3-18.2c0.9-2.1,2-4.1,3.7-5.8
	c1.1-1.1,2.3-1.9,3.8-2.3c1.9-0.5,3.6,0.1,4.7,1.8c0.8,1.2,1.2,2.5,1.3,3.9c0.1,2.3,0.2,4.6,0.1,6.9c0,1-0.3,2-0.7,2.9
	c-2.1,5.3-4.7,10.3-8.7,14.6C273.7,85.3,273.4,85.8,272.9,86.4z M271.5,80.4c0.3,0,0.4,0.1,0.5,0.1c0.2-0.2,0.5-0.3,0.7-0.5
	c2.7-3.6,4.9-7.5,6.3-11.7c0.7-2.2,0.5-4.5,0.1-6.8c-0.1-0.6-0.5-1.1-0.8-1.6c-0.4-0.7-1.2-0.9-1.8-0.4c-0.8,0.7-1.6,1.5-2.2,2.4
	c-1.3,2-2,4.3-2.5,6.7c-0.7,3.6-0.7,7.3-0.6,11C271.3,79.8,271.4,80.1,271.5,80.4z"/>
<path class="st0" d="M197.7,70.1c-0.7,1.1-1.2,1.7-1.6,2.3c-1.7,3-2.8,6.1-3.9,9.4c-0.9,2.7-1.7,5.3-2.5,8c-0.2,0.8-0.5,1.5-0.8,2.2
	c-0.4,0.9-1.4,1.1-2.3,0.6c-0.7-0.4-1.2-1.1-1.3-1.9c-0.4-2.5-1-4.9-1.1-7.4c-0.2-6.8-0.1-13.6-0.1-20.3c0-0.3,0-0.6,0-0.9
	c0.1-1.1,1-1.9,2-1.9c1,0,1.8,0.8,1.9,2c0.1,0.7,0.1,1.4,0.1,2.1c0,4.4,0,8.8,0,13.2c0,0.6,0.1,1.2,0.1,1.7c0.8,0.3,1-0.2,1.2-0.6
	c0.7-1.6,1.3-3.3,2.2-4.9c1.1-2.2,2.4-4.3,3.7-6.5c0.5-0.8,1.1-1.4,2.1-1.5c1.8-0.2,2.9,0.2,3.6,2c0.7,1.7,1.1,3.4,1.5,5.1
	c0.7,2.8,1.2,5.6,1.8,8.5c0.5,2.3,1.4,4.4,3.1,6c0.2,0.2,0.4,0.4,0.6,0.7c0.5,0.7,0.5,1.3,0.1,1.9c-0.4,0.7-1.1,1-1.8,0.8
	c-0.6-0.2-1.3-0.5-1.8-1c-1.4-1.4-2.3-3.1-2.8-4.9c-0.7-2.5-1.3-5-1.9-7.5c-0.4-1.8-0.8-3.7-1.2-5.5C198.4,71.3,198.1,71,197.7,70.1
	z"/>
<path class="st0" d="M396,58.6c-0.6-0.2-1.3-0.2-1.6-0.6c-0.4-0.5-0.7-1.3-0.6-1.9c0.2-1.1,1.4-1.8,2.7-1.7c1,0.1,1.9,0.7,2.1,1.6
	c0.2,0.7-0.2,1.8-0.9,2.1C397.1,58.3,396.5,58.4,396,58.6z"/>
</svg>
