<?xml version="1.0" encoding="utf-8"?>
<!-- Generator: Adobe Illustrator 16.0.4, SVG Export Plug-In . SVG Version: 6.00 Build 0)  -->
<!DOCTYPE svg PUBLIC "-//W3C//DTD SVG 1.1//EN" "http://www.w3.org/Graphics/SVG/1.1/DTD/svg11.dtd">
<svg version="1.1" id="Layer_1" xmlns="http://www.w3.org/2000/svg" xmlns:xlink="http://www.w3.org/1999/xlink" x="0px" y="0px"
	 width="293.803px" height="416.528px" viewBox="0 0 293.803 416.528" enable-background="new 0 0 293.803 416.528"
	 xml:space="preserve">
<g>
	<path d="M0,32.555c0-2.065,0-4.13,0-6.195c1.588-4.159,3.148-8.328,7.664-10.334c0.862-0.383,1.507-1.215,1.144-2.146
		c-1.292-3.312,1.158-4.471,3.223-5.862c2.569-1.73,5.274-3.279,7.715-5.171c3.824-2.964,7.856-3.37,12.5-2.327
		c10.268,2.306,19.245,7.273,28.076,12.694c5.146,3.16,9.963,7.625,15.788,8.709c7.114,1.325,13.179,3.048,18.192,8.812
		c2.766,3.18,7.454,4.642,11.136,7.087c2.869,1.905,5.788,3.872,8.175,7.967c-3.836-0.697-6.676-1.165-9.496-1.735
		c-8.442-1.704-16.898-3.022-25.333-0.115c-2.415,0.833-6.625,1.063-6.44,3.567c0.228,3.073,4.42,2.601,7.043,2.974
		c39.637,5.635,72.989,23.236,100.264,52.465c5.447,5.838,10.207,12.216,14.576,18.886c0.797,1.214,1.711,2.638,0.584,4.064
		c-0.875,1.107-2.201,0.548-3.318,0.272c-3.006-0.744-5.994-1.551-8.986-2.347c-8.316-2.213-15.436-0.027-21.512,5.89
		c-1.023,0.997-2.457,1.985-1.729,3.716c0.594,1.411,2.084,1.511,3.4,1.655c21.199,2.324,38.523,13.169,55.297,25.184
		c2.797,2.003,4.949,4.749,6.262,7.9c6.639,15.926,13.123,31.915,19.707,47.863c1.23,2.977,0.17,3.725-2.715,3.328
		c-4.381-0.601-8.77-1.203-13.174-1.539c-6.082-0.466-12.102,0.002-17.727,2.621c-1.428,0.664-3.02,1.738-2.93,3.561
		c0.078,1.602,1.832,1.732,3.025,2.154c10.701,3.795,21.373,7.676,32.143,11.266c8.219,2.738,14.49,7.76,19.012,15.033
		c15.221,24.486,25.232,50.941,29.688,79.439c1.09,6.969,1.711,14.01,2.547,21.016c0,4.131,0,8.26,0,12.391
		c-0.209,0.549-0.465,1.086-0.619,1.65c-1.658,6.1-1.652,6.102-8.07,5.381c-0.586-0.066-1.168-0.168-1.754-0.223
		c-1.43-0.133-3.189-1.365-4.201-0.211c-1.295,1.479,0.494,2.961,1.123,4.334c2.68,5.854,5.137,11.688,2.146,18.203
		c-2.35,5.121-5.482,9.77-8.746,14.314c-1.816,2.529-4.348,4.055-7.666,3.158c-3.188-0.861-4.309-3.473-4.715-6.34
		c-0.785-5.539-1.496-11.1-1.979-16.674c-0.898-10.35-2.41-20.521-7.562-29.764c-0.996-1.785-2.268-3.436-3.557-5.029
		c-0.389-0.482-1.35-0.895-1.91-0.762c-1.166,0.275-0.832,1.398-0.67,2.221c0.738,3.76,1.318,7.57,2.352,11.25
		c3.943,14.053,2.766,28.066-0.281,42.021c-1.678,7.686-6.236,9.672-13.053,5.715c-6.24-3.623-12.15-7.814-18.346-11.523
		c-5.166-3.092-8.186-7.488-9.299-13.322c-1.742-9.123-3.566-18.23-5.248-27.363c-2.986-16.234-5.336-32.609-10.723-48.307
		c-0.619-1.805-1.389-3.568-2.24-5.273c-0.443-0.891-1.094-1.916-2.332-1.707c-1.199,0.203-1.502,1.336-1.758,2.322
		c-1.047,4.074-0.828,8.193-0.232,12.295c0.592,4.082,1.621,8.113,1.432,12.277c-0.076,1.703,0.531,3.846-1.398,4.789
		c-1.939,0.947-3.707-0.383-5.314-1.375c-2.295-1.418-4.01-3.475-5.422-5.742c-2.182-3.504-4.297-7.051-6.395-10.605
		c-8.586-14.531-13.748-29.971-12.504-47.121c0.129-1.756,0-3.537-0.086-5.303c-0.061-1.213-0.328-2.439-1.76-2.729
		c-1.389-0.281-2.207,0.68-2.793,1.732c-0.787,1.412-1.459,2.893-2.152,4.357c-0.522,1.102-1.122,2-2.493,2.23
		c-4.775,0.811-12.06-2.963-14.342-7.369c-6.748-13.025-11.74-26.697-15.353-40.902c-0.439-1.727-0.48-4.262-3.017-4.301
		c-2.179-0.033-2.48,2.184-3.123,3.799c-0.598,1.504-1.11,3.537-2.965,3.418c-2.344-0.15-1.974-2.586-2.309-4.193
		c-1.444-6.92-2.023-14.083-4.821-20.63c-2.341-5.48-4.497-10.879-4.228-16.977c0.056-1.274-0.054-2.975-1.719-3.179
		c-1.972-0.243-2.266,1.588-2.586,2.976c-0.861,3.734-1.561,7.505-2.397,11.245c-0.374,1.675-0.423,3.85-2.785,3.926
		c-2.254,0.074-2.79-1.917-3.215-3.629c-5.114-20.583-7.968-41.44-6.214-62.654c0.712-8.606-0.661-17.068-0.44-25.608
		c0.05-1.965-0.44-4.106-2.791-4.43c-2.706-0.373-2.717,2.145-3.335,3.855c-0.987,2.732-0.911,6.279-3.734,7.758
		c-5.607,2.937-6.344,7.776-5.882,13.153c1.201,13.986,0.493,27.998,0.624,41.996c0.021,2.209,1.626,5.986-1.494,6.402
		c-2.33,0.311-2.338-3.605-2.822-5.778c-5.189-23.311-7.609-47.111-12.41-70.491c-0.545-2.655,0.137-7.152-3.673-6.959
		c-3.652,0.186-2.844,4.646-3.166,7.338c-1.651,13.827-1.567,27.616,1.062,41.381c0.853,4.466,1.868,9.086,0.856,14.529
		c-0.833-1.248-1.29-1.795-1.6-2.415c-4.955-9.885-9.955-19.748-14.802-29.685c-2.204-4.518-3.974-9.257-4.226-14.343
		c-0.67-13.538-1.421-27.077-1.719-40.624c-0.151-6.874-1.845-13.025-5.463-18.816C7.352,46.343,3.411,39.594,0,32.555z
		 M269.985,346.898c-0.482-10.484-28.795-53.713-38.572-59.842c-0.68,2.893,0.148,5.447,1.611,7.602
		C245.014,312.307,256.485,330.338,269.985,346.898z M124.951,152.128c-0.762-0.116-1.312,0.073-1.457,0.765
		c-0.202,0.972,0.342,1.718,1.007,2.307c4.79,4.246,7.986,9.772,11.888,14.73c1.542,1.96,3.021,3.979,4.695,5.821
		c0.729,0.803,1.945,1.878,3.019,0.713c0.832-0.901-0.215-1.918-0.81-2.699c-4.72-6.203-9.45-12.399-14.239-18.548
		C127.969,153.824,126.564,152.723,124.951,152.128z"/>
	<path fill-rule="evenodd" clip-rule="evenodd" fill="none" d="M0,32.555c3.411,7.04,7.352,13.789,11.49,20.412
		c3.618,5.792,5.312,11.943,5.463,18.816c0.298,13.547,1.049,27.086,1.719,40.624c0.251,5.086,2.022,9.825,4.226,14.343
		c4.847,9.938,9.847,19.8,14.802,29.685c0.311,0.62,0.767,1.167,1.6,2.415c1.012-5.443-0.003-10.063-0.856-14.529
		c-2.628-13.765-2.713-27.554-1.062-41.381c0.321-2.692-0.487-7.153,3.166-7.338c3.81-0.193,3.127,4.304,3.673,6.959
		c4.801,23.379,7.22,47.18,12.41,70.491c0.484,2.173,0.492,6.088,2.822,5.778c3.12-0.416,1.514-4.193,1.494-6.402
		c-0.131-13.998,0.577-28.009-0.624-41.996c-0.462-5.377,0.275-10.216,5.882-13.153c2.823-1.479,2.747-5.025,3.734-7.758
		c0.618-1.71,0.629-4.228,3.335-3.855c2.351,0.324,2.841,2.465,2.791,4.43c-0.221,8.54,1.152,17.001,0.44,25.608
		c-1.754,21.214,1.1,42.072,6.214,62.654c0.425,1.712,0.96,3.703,3.215,3.629c2.362-0.076,2.411-2.251,2.785-3.926
		c0.836-3.74,1.536-7.511,2.397-11.245c0.32-1.387,0.615-3.218,2.586-2.976c1.665,0.204,1.775,1.905,1.719,3.179
		c-0.269,6.098,1.887,11.497,4.228,16.977c2.798,6.547,3.377,13.71,4.821,20.63c0.335,1.607-0.035,4.043,2.309,4.193
		c1.855,0.119,2.367-1.914,2.965-3.418c0.643-1.615,0.944-3.832,3.123-3.799c2.537,0.039,2.578,2.574,3.017,4.301
		c3.613,14.205,8.605,27.877,15.353,40.902c2.282,4.406,9.567,8.18,14.342,7.369c1.371-0.23,1.971-1.129,2.493-2.23
		c0.693-1.465,1.365-2.945,2.152-4.357c0.586-1.053,1.404-2.014,2.793-1.732c1.432,0.289,1.699,1.516,1.76,2.729
		c0.086,1.766,0.215,3.547,0.086,5.303c-1.244,17.15,3.918,32.59,12.504,47.121c2.098,3.555,4.213,7.102,6.395,10.605
		c1.412,2.268,3.127,4.324,5.422,5.742c1.607,0.992,3.375,2.322,5.314,1.375c1.93-0.943,1.322-3.086,1.398-4.789
		c0.189-4.164-0.84-8.195-1.432-12.277c-0.596-4.102-0.814-8.221,0.232-12.295c0.256-0.986,0.559-2.119,1.758-2.322
		c1.238-0.209,1.889,0.816,2.332,1.707c0.852,1.705,1.621,3.469,2.24,5.273c5.387,15.697,7.736,32.072,10.723,48.307
		c1.682,9.133,3.506,18.24,5.248,27.363c1.113,5.834,4.133,10.23,9.299,13.322c6.195,3.709,12.105,7.9,18.346,11.523
		c6.816,3.957,11.375,1.971,13.053-5.715c3.047-13.955,4.225-27.969,0.281-42.021c-1.033-3.68-1.613-7.49-2.352-11.25
		c-0.162-0.822-0.496-1.945,0.67-2.221c0.561-0.133,1.521,0.279,1.91,0.762c1.289,1.594,2.561,3.244,3.557,5.029
		c5.152,9.242,6.664,19.414,7.562,29.764c0.482,5.574,1.193,11.135,1.979,16.674c0.406,2.867,1.527,5.479,4.715,6.34
		c3.318,0.896,5.85-0.629,7.666-3.158c3.264-4.545,6.396-9.193,8.746-14.314c2.99-6.516,0.533-12.35-2.146-18.203
		c-0.629-1.373-2.418-2.855-1.123-4.334c1.012-1.154,2.771,0.078,4.201,0.211c0.586,0.055,1.168,0.156,1.754,0.223
		c6.418,0.721,6.412,0.719,8.07-5.381c0.154-0.564,0.41-1.102,0.619-1.65"/>
	<path fill-rule="evenodd" clip-rule="evenodd" fill="none" d="M293.803,352.906c-0.836-7.006-1.457-14.047-2.547-21.016
		c-4.455-28.498-14.467-54.953-29.688-79.439c-4.521-7.273-10.793-12.295-19.012-15.033c-10.77-3.59-21.441-7.471-32.143-11.266
		c-1.193-0.422-2.947-0.553-3.025-2.154c-0.09-1.822,1.502-2.896,2.93-3.561c5.625-2.619,11.645-3.087,17.727-2.621
		c4.404,0.336,8.793,0.938,13.174,1.539c2.885,0.396,3.945-0.352,2.715-3.328c-6.584-15.948-13.068-31.937-19.707-47.863
		c-1.312-3.151-3.465-5.896-6.262-7.9c-16.773-12.015-34.098-22.86-55.297-25.184c-1.316-0.144-2.807-0.244-3.4-1.655
		c-0.729-1.731,0.705-2.72,1.729-3.716c6.076-5.917,13.195-8.103,21.512-5.89c2.992,0.796,5.98,1.603,8.986,2.347
		c1.117,0.276,2.443,0.835,3.318-0.272c1.127-1.427,0.213-2.85-0.584-4.064c-4.369-6.669-9.129-13.048-14.576-18.886
		c-27.275-29.229-60.627-46.83-100.264-52.465c-2.624-0.373-6.815,0.1-7.043-2.974c-0.185-2.504,4.025-2.734,6.44-3.567
		c8.435-2.908,16.891-1.589,25.333,0.115c2.819,0.57,5.66,1.038,9.496,1.735c-2.387-4.095-5.306-6.062-8.175-7.967
		c-3.682-2.445-8.37-3.907-11.136-7.087c-5.013-5.764-11.078-7.487-18.192-8.812c-5.825-1.085-10.643-5.55-15.788-8.709
		C51.492,7.792,42.514,2.826,32.247,0.52c-4.644-1.043-8.677-0.637-12.5,2.327c-2.441,1.892-5.146,3.441-7.715,5.171
		c-2.065,1.391-4.515,2.55-3.223,5.862c0.363,0.931-0.282,1.762-1.144,2.146C3.148,18.032,1.588,22.201,0,26.36"/>
	<path fill-rule="evenodd" clip-rule="evenodd" fill="none" d="M269.985,346.898c-13.5-16.561-24.971-34.592-36.961-52.24
		c-1.463-2.154-2.291-4.709-1.611-7.602C241.19,293.186,269.502,336.414,269.985,346.898z"/>
	<path fill-rule="evenodd" clip-rule="evenodd" fill="none" d="M124.951,152.128c1.614,0.595,3.019,1.696,4.104,3.089
		c4.79,6.149,9.519,12.346,14.239,18.548c0.595,0.781,1.642,1.798,0.81,2.699c-1.074,1.165-2.291,0.09-3.019-0.713
		c-1.673-1.842-3.153-3.861-4.695-5.821c-3.902-4.958-7.098-10.485-11.888-14.73c-0.665-0.589-1.209-1.335-1.007-2.307
		C123.638,152.201,124.189,152.012,124.951,152.128z"/>
</g>
</svg>
