<svg width="249px" height="733px" viewBox="0 0 249 733" version="1.1">
  <clipPath id="shape-logo">
    <path d="M1,0 L101.5,0 L125,39.5 L143.5,60 L148,92 L167,92 L184,116.5 L210,156 C210,156 216,177.662645 216,188 C216,204.682292 199.5,219 199.5,219 L227.5,224.5 C227.5,224.5 244.115597,231.177882 234.5,238.5 C224.884403,245.822118 221,248.5 221,248.5 C221,248.5 221,257.463607 221,262 C221,264.617303 246.724045,267.630465 242,275.5 C241.070194,277.048914 252.339948,288.017489 245.5,295.5 C243.948985,297.196721 236.511274,308.087404 227.5,316 C224.505014,318.629829 234.354514,335.25362 221,346.5 C217.705027,349.274831 256.348676,359.640092 248,364.5 C244.980342,366.257795 231.962568,395.766311 227.5,397.5 C226.567687,397.862199 212.524895,423.080123 206,423 C204.419103,422.980587 233.965426,380.957024 227.5,378.5 C226.280154,378.036428 201.65697,366.661244 196,367.5 C193.893307,367.812358 183.615604,378.486475 173.5,383.5 C163.384396,388.513525 161.5,403.54742 161.5,404.5 C161.5,413.516817 123.243711,422.648007 128.5,438 C134.450538,455.379679 133,485.02092 133,494 C133,503.757871 145.76127,516.939956 148,532.5 C149.981267,546.270578 166.185527,546.755857 167,560.5 C168.620303,587.842429 115,518 115,518 C115,518 109.513642,468.702108 106,472 C105.29602,472.660753 112.965528,516.966682 106,527 C104.209498,529.579083 96.4015587,537.307662 85.7880759,547.367948 C80.837438,552.060548 97.3454978,455.078731 91.5,460.5 C87.1803679,464.50614 91.0525193,423.322305 85.7880759,431 C82.6747257,435.540528 69.4524114,438.745176 66,445 C61.6144084,452.945491 23.8505946,447.572244 19.5,457.5 C14.6847056,468.488169 19.3112048,717.603704 16.5,730.5 C15.4529218,735.303432 3.62166989,734.723191 1,716 C-1.62166989,697.276809 1,721.75 1,689.5 C1,657.25 1,625 1,625 L1,0 Z" id="Rectangle"></path>
  </clipPath>
</svg>
